# xmcd CD database file
#
# Track frame offsets:
#	150
#	31689
#	57378
#	95733
#	130991
#	157750
#	186403
#	219980
#	248315
#	270067
#	292071
#	303125
#
# Disc length: 4304 seconds
#
# Revision: 0
# Processed by: cddbd v1.5.2PL0 Copyright (c) Steve Scherf et al.
# Submitted via: CDex 1.51
#
DISCID=9910ce0c
DTITLE=Saint Germain - Tourist
DYEAR=1900
DGENRE=Jazz
TTITLE0=Rose Rouge
TTITLE1=Montego Bay Spleen
TTITLE2=So Flute
TTITLE3=Land Of...
TTITLE4=Latin Note
TTITLE5=Sure Thing
TTITLE6=Pont Des Arts
TTITLE7=La Goutte d'Or
TTITLE8=What You Think About...
TTITLE9=Rose Rouge (Blaze Early Shelter Mix)
TTITLE10=Sure Thing (Todd Edwards Deepline Remix)
TTITLE11=Rose Rouge (Spiller Rouge Mix)
EXTD=
EXTT0=
EXTT1=
EXTT2=
EXTT3=
EXTT4=
EXTT5=
EXTT6=
EXTT7=
EXTT8=
EXTT9=
EXTT10=
EXTT11=
PLAYORDER=
